<mxfile host="Electron" modified="2023-05-21T06:59:14.766Z" agent="Mozilla/5.0 (Windows NT 10.0; Win64; x64) AppleWebKit/537.36 (KHTML, like Gecko) draw.io/21.2.8 Chrome/112.0.5615.165 Electron/24.2.0 Safari/537.36" etag="c9wzx_C18XR3Sjr8bhQU" version="21.2.8" type="device">
  <diagram name="第1頁" id="AanB8yNyS1pnc1NzVk0f">
    <mxGraphModel dx="714" dy="484" grid="1" gridSize="10" guides="1" tooltips="1" connect="1" arrows="1" fold="1" page="1" pageScale="1" pageWidth="827" pageHeight="1169" math="0" shadow="0">
      <root>
        <mxCell id="0" />
        <mxCell id="1" parent="0" />
        <mxCell id="gfehp5p-V9e-1P1ylHKR-1" value="" style="shape=table;startSize=0;container=1;collapsible=0;childLayout=tableLayout;fontSize=16;" parent="1" vertex="1">
          <mxGeometry x="160" y="120" width="267" height="40" as="geometry" />
        </mxCell>
        <mxCell id="gfehp5p-V9e-1P1ylHKR-2" value="" style="shape=tableRow;horizontal=0;startSize=0;swimlaneHead=0;swimlaneBody=0;strokeColor=inherit;top=0;left=0;bottom=0;right=0;collapsible=0;dropTarget=0;fillColor=none;points=[[0,0.5],[1,0.5]];portConstraint=eastwest;fontSize=16;" parent="gfehp5p-V9e-1P1ylHKR-1" vertex="1">
          <mxGeometry width="267" height="40" as="geometry" />
        </mxCell>
        <mxCell id="gfehp5p-V9e-1P1ylHKR-3" value="" style="shape=partialRectangle;html=1;whiteSpace=wrap;connectable=0;strokeColor=inherit;overflow=hidden;fillColor=none;top=0;left=0;bottom=0;right=0;pointerEvents=1;fontSize=16;" parent="gfehp5p-V9e-1P1ylHKR-2" vertex="1">
          <mxGeometry width="15" height="40" as="geometry">
            <mxRectangle width="15" height="40" as="alternateBounds" />
          </mxGeometry>
        </mxCell>
        <mxCell id="gfehp5p-V9e-1P1ylHKR-4" value="56" style="shape=partialRectangle;html=1;whiteSpace=wrap;connectable=0;strokeColor=#b85450;overflow=hidden;fillColor=#f8cecc;top=0;left=0;bottom=0;right=0;pointerEvents=1;fontSize=16;" parent="gfehp5p-V9e-1P1ylHKR-2" vertex="1">
          <mxGeometry x="15" width="48" height="40" as="geometry">
            <mxRectangle width="48" height="40" as="alternateBounds" />
          </mxGeometry>
        </mxCell>
        <mxCell id="gfehp5p-V9e-1P1ylHKR-5" value="" style="shape=partialRectangle;html=1;whiteSpace=wrap;connectable=0;strokeColor=#b85450;overflow=hidden;fillColor=#f8cecc;top=0;left=0;bottom=0;right=0;pointerEvents=1;fontSize=16;" parent="gfehp5p-V9e-1P1ylHKR-2" vertex="1">
          <mxGeometry x="63" width="15" height="40" as="geometry">
            <mxRectangle width="15" height="40" as="alternateBounds" />
          </mxGeometry>
        </mxCell>
        <mxCell id="gfehp5p-V9e-1P1ylHKR-22" value="61" style="shape=partialRectangle;html=1;whiteSpace=wrap;connectable=0;strokeColor=inherit;overflow=hidden;fillColor=none;top=0;left=0;bottom=0;right=0;pointerEvents=1;fontSize=16;" parent="gfehp5p-V9e-1P1ylHKR-2" vertex="1">
          <mxGeometry x="78" width="48" height="40" as="geometry">
            <mxRectangle width="48" height="40" as="alternateBounds" />
          </mxGeometry>
        </mxCell>
        <mxCell id="gfehp5p-V9e-1P1ylHKR-29" style="shape=partialRectangle;html=1;whiteSpace=wrap;connectable=0;strokeColor=#6c8ebf;overflow=hidden;fillColor=#dae8fc;top=0;left=0;bottom=0;right=0;pointerEvents=1;fontSize=16;" parent="gfehp5p-V9e-1P1ylHKR-2" vertex="1">
          <mxGeometry x="126" width="15" height="40" as="geometry">
            <mxRectangle width="15" height="40" as="alternateBounds" />
          </mxGeometry>
        </mxCell>
        <mxCell id="gfehp5p-V9e-1P1ylHKR-30" style="shape=partialRectangle;html=1;whiteSpace=wrap;connectable=0;strokeColor=inherit;overflow=hidden;fillColor=none;top=0;left=0;bottom=0;right=0;pointerEvents=1;fontSize=16;" parent="gfehp5p-V9e-1P1ylHKR-2" vertex="1">
          <mxGeometry x="141" width="48" height="40" as="geometry">
            <mxRectangle width="48" height="40" as="alternateBounds" />
          </mxGeometry>
        </mxCell>
        <mxCell id="gfehp5p-V9e-1P1ylHKR-31" style="shape=partialRectangle;html=1;whiteSpace=wrap;connectable=0;strokeColor=inherit;overflow=hidden;fillColor=none;top=0;left=0;bottom=0;right=0;pointerEvents=1;fontSize=16;" parent="gfehp5p-V9e-1P1ylHKR-2" vertex="1">
          <mxGeometry x="189" width="15" height="40" as="geometry">
            <mxRectangle width="15" height="40" as="alternateBounds" />
          </mxGeometry>
        </mxCell>
        <mxCell id="gfehp5p-V9e-1P1ylHKR-32" style="shape=partialRectangle;html=1;whiteSpace=wrap;connectable=0;strokeColor=inherit;overflow=hidden;fillColor=none;top=0;left=0;bottom=0;right=0;pointerEvents=1;fontSize=16;" parent="gfehp5p-V9e-1P1ylHKR-2" vertex="1">
          <mxGeometry x="204" width="48" height="40" as="geometry">
            <mxRectangle width="48" height="40" as="alternateBounds" />
          </mxGeometry>
        </mxCell>
        <mxCell id="gfehp5p-V9e-1P1ylHKR-33" style="shape=partialRectangle;html=1;whiteSpace=wrap;connectable=0;strokeColor=inherit;overflow=hidden;fillColor=none;top=0;left=0;bottom=0;right=0;pointerEvents=1;fontSize=16;" parent="gfehp5p-V9e-1P1ylHKR-2" vertex="1">
          <mxGeometry x="252" width="15" height="40" as="geometry">
            <mxRectangle width="15" height="40" as="alternateBounds" />
          </mxGeometry>
        </mxCell>
        <mxCell id="gfehp5p-V9e-1P1ylHKR-23" value="" style="shape=table;startSize=0;container=1;collapsible=0;childLayout=tableLayout;fontSize=16;" parent="1" vertex="1">
          <mxGeometry x="40" y="200" width="190" height="40" as="geometry" />
        </mxCell>
        <mxCell id="gfehp5p-V9e-1P1ylHKR-24" value="" style="shape=tableRow;horizontal=0;startSize=0;swimlaneHead=0;swimlaneBody=0;strokeColor=inherit;top=0;left=0;bottom=0;right=0;collapsible=0;dropTarget=0;fillColor=none;points=[[0,0.5],[1,0.5]];portConstraint=eastwest;fontSize=16;" parent="gfehp5p-V9e-1P1ylHKR-23" vertex="1">
          <mxGeometry width="190" height="40" as="geometry" />
        </mxCell>
        <mxCell id="gfehp5p-V9e-1P1ylHKR-25" value="52" style="shape=partialRectangle;html=1;whiteSpace=wrap;connectable=0;strokeColor=inherit;overflow=hidden;fillColor=none;top=0;left=0;bottom=0;right=0;pointerEvents=1;fontSize=16;" parent="gfehp5p-V9e-1P1ylHKR-24" vertex="1">
          <mxGeometry width="48" height="40" as="geometry">
            <mxRectangle width="48" height="40" as="alternateBounds" />
          </mxGeometry>
        </mxCell>
        <mxCell id="gfehp5p-V9e-1P1ylHKR-26" value="54" style="shape=partialRectangle;html=1;whiteSpace=wrap;connectable=0;strokeColor=inherit;overflow=hidden;fillColor=none;top=0;left=0;bottom=0;right=0;pointerEvents=1;fontSize=16;" parent="gfehp5p-V9e-1P1ylHKR-24" vertex="1">
          <mxGeometry x="48" width="47" height="40" as="geometry">
            <mxRectangle width="47" height="40" as="alternateBounds" />
          </mxGeometry>
        </mxCell>
        <mxCell id="gfehp5p-V9e-1P1ylHKR-27" value="" style="shape=partialRectangle;html=1;whiteSpace=wrap;connectable=0;overflow=hidden;top=0;left=0;bottom=0;right=0;pointerEvents=1;fontSize=16;fillColor=none;strokeColor=inherit;" parent="gfehp5p-V9e-1P1ylHKR-24" vertex="1">
          <mxGeometry x="95" width="48" height="40" as="geometry">
            <mxRectangle width="48" height="40" as="alternateBounds" />
          </mxGeometry>
        </mxCell>
        <mxCell id="gfehp5p-V9e-1P1ylHKR-28" value="" style="shape=partialRectangle;html=1;whiteSpace=wrap;connectable=0;strokeColor=inherit;overflow=hidden;fillColor=none;top=0;left=0;bottom=0;right=0;pointerEvents=1;fontSize=16;" parent="gfehp5p-V9e-1P1ylHKR-24" vertex="1">
          <mxGeometry x="143" width="47" height="40" as="geometry">
            <mxRectangle width="47" height="40" as="alternateBounds" />
          </mxGeometry>
        </mxCell>
        <mxCell id="gfehp5p-V9e-1P1ylHKR-34" value="" style="endArrow=classic;html=1;rounded=0;exitX=0.027;exitY=0.992;exitDx=0;exitDy=0;exitPerimeter=0;entryX=0.497;entryY=0.012;entryDx=0;entryDy=0;entryPerimeter=0;strokeWidth=1;" parent="1" source="gfehp5p-V9e-1P1ylHKR-2" target="gfehp5p-V9e-1P1ylHKR-24" edge="1">
          <mxGeometry width="50" height="50" relative="1" as="geometry">
            <mxPoint x="360" y="390" as="sourcePoint" />
            <mxPoint x="410" y="340" as="targetPoint" />
          </mxGeometry>
        </mxCell>
        <mxCell id="gfehp5p-V9e-1P1ylHKR-37" style="edgeStyle=orthogonalEdgeStyle;rounded=0;orthogonalLoop=1;jettySize=auto;html=1;exitX=0.5;exitY=1;exitDx=0;exitDy=0;entryX=0.496;entryY=-0.004;entryDx=0;entryDy=0;entryPerimeter=0;strokeWidth=1;" parent="1" source="gfehp5p-V9e-1P1ylHKR-36" target="gfehp5p-V9e-1P1ylHKR-2" edge="1">
          <mxGeometry relative="1" as="geometry" />
        </mxCell>
        <mxCell id="gfehp5p-V9e-1P1ylHKR-36" value="&lt;font style=&quot;font-size: 16px;&quot;&gt;Root&lt;/font&gt;" style="rounded=0;whiteSpace=wrap;html=1;" parent="1" vertex="1">
          <mxGeometry x="268.5" y="40" width="50" height="40" as="geometry" />
        </mxCell>
        <mxCell id="9ntbfwSOvVafJQgxA-3O-5" value="" style="shape=table;startSize=0;container=1;collapsible=0;childLayout=tableLayout;fontSize=16;" parent="1" vertex="1">
          <mxGeometry x="268.5" y="200" width="190" height="40" as="geometry" />
        </mxCell>
        <mxCell id="9ntbfwSOvVafJQgxA-3O-6" value="" style="shape=tableRow;horizontal=0;startSize=0;swimlaneHead=0;swimlaneBody=0;strokeColor=inherit;top=0;left=0;bottom=0;right=0;collapsible=0;dropTarget=0;fillColor=none;points=[[0,0.5],[1,0.5]];portConstraint=eastwest;fontSize=16;" parent="9ntbfwSOvVafJQgxA-3O-5" vertex="1">
          <mxGeometry width="190" height="40" as="geometry" />
        </mxCell>
        <mxCell id="9ntbfwSOvVafJQgxA-3O-7" value="56" style="shape=partialRectangle;html=1;whiteSpace=wrap;connectable=0;strokeColor=#b85450;overflow=hidden;fillColor=#f8cecc;top=0;left=0;bottom=0;right=0;pointerEvents=1;fontSize=16;" parent="9ntbfwSOvVafJQgxA-3O-6" vertex="1">
          <mxGeometry width="48" height="40" as="geometry">
            <mxRectangle width="48" height="40" as="alternateBounds" />
          </mxGeometry>
        </mxCell>
        <mxCell id="9ntbfwSOvVafJQgxA-3O-8" value="58" style="shape=partialRectangle;html=1;whiteSpace=wrap;connectable=0;strokeColor=inherit;overflow=hidden;fillColor=none;top=0;left=0;bottom=0;right=0;pointerEvents=1;fontSize=16;" parent="9ntbfwSOvVafJQgxA-3O-6" vertex="1">
          <mxGeometry x="48" width="47" height="40" as="geometry">
            <mxRectangle width="47" height="40" as="alternateBounds" />
          </mxGeometry>
        </mxCell>
        <mxCell id="9ntbfwSOvVafJQgxA-3O-9" value="60" style="shape=partialRectangle;html=1;whiteSpace=wrap;connectable=0;overflow=hidden;top=0;left=0;bottom=0;right=0;pointerEvents=1;fontSize=16;fillColor=none;strokeColor=inherit;" parent="9ntbfwSOvVafJQgxA-3O-6" vertex="1">
          <mxGeometry x="95" width="48" height="40" as="geometry">
            <mxRectangle width="48" height="40" as="alternateBounds" />
          </mxGeometry>
        </mxCell>
        <mxCell id="9ntbfwSOvVafJQgxA-3O-10" value="" style="shape=partialRectangle;html=1;whiteSpace=wrap;connectable=0;strokeColor=inherit;overflow=hidden;fillColor=none;top=0;left=0;bottom=0;right=0;pointerEvents=1;fontSize=16;" parent="9ntbfwSOvVafJQgxA-3O-6" vertex="1">
          <mxGeometry x="143" width="47" height="40" as="geometry">
            <mxRectangle width="47" height="40" as="alternateBounds" />
          </mxGeometry>
        </mxCell>
        <mxCell id="5k4Di7LYVlkaPsk0eJkf-1" value="x &amp;gt;= 61" style="text;html=1;strokeColor=#6c8ebf;fillColor=#dae8fc;align=center;verticalAlign=middle;whiteSpace=wrap;rounded=0;fontSize=16;" parent="1" vertex="1">
          <mxGeometry x="490" y="200" width="80" height="40" as="geometry" />
        </mxCell>
        <mxCell id="5k4Di7LYVlkaPsk0eJkf-2" value="" style="endArrow=classic;html=1;rounded=0;entryX=0.5;entryY=0;entryDx=0;entryDy=0;" parent="1" target="5k4Di7LYVlkaPsk0eJkf-1" edge="1">
          <mxGeometry width="50" height="50" relative="1" as="geometry">
            <mxPoint x="294" y="160" as="sourcePoint" />
            <mxPoint x="440" y="340" as="targetPoint" />
          </mxGeometry>
        </mxCell>
        <mxCell id="5k4Di7LYVlkaPsk0eJkf-3" value="" style="endArrow=classic;html=1;rounded=0;exitX=0.258;exitY=0.995;exitDx=0;exitDy=0;exitPerimeter=0;entryX=0.496;entryY=-0.005;entryDx=0;entryDy=0;entryPerimeter=0;" parent="1" source="gfehp5p-V9e-1P1ylHKR-2" target="9ntbfwSOvVafJQgxA-3O-6" edge="1">
          <mxGeometry width="50" height="50" relative="1" as="geometry">
            <mxPoint x="310" y="310" as="sourcePoint" />
            <mxPoint x="360" y="260" as="targetPoint" />
          </mxGeometry>
        </mxCell>
        <mxCell id="5k4Di7LYVlkaPsk0eJkf-4" value="56 &amp;lt;= x &amp;lt; 61" style="text;html=1;strokeColor=none;fillColor=none;align=center;verticalAlign=middle;whiteSpace=wrap;rounded=0;fontSize=16;" parent="1" vertex="1">
          <mxGeometry x="196" y="160" width="122.5" height="30" as="geometry" />
        </mxCell>
        <mxCell id="5k4Di7LYVlkaPsk0eJkf-5" value="x &amp;lt; 56" style="text;html=1;strokeColor=none;fillColor=none;align=center;verticalAlign=middle;whiteSpace=wrap;rounded=0;fontSize=16;" parent="1" vertex="1">
          <mxGeometry x="80" y="160" width="60" height="30" as="geometry" />
        </mxCell>
      </root>
    </mxGraphModel>
  </diagram>
</mxfile>
